<svg xmlns="http://www.w3.org/2000/svg" viewBox="0 0 24 24" fill="#E50914">
  <path d="M4.5 3A1.5 1.5 0 0 0 3 4.5v15A1.5 1.5 0 0 0 4.5 21h15a1.5 1.5 0 0 0 1.5-1.5v-15A1.5 1.5 0 0 0 19.5 3h-15zm5.25 5.16V8.4h4.14c1.37 0 2.22.69 2.22 2.03 0 1.26-.8 2.08-1.95 2.08h-2.52v2.52h-1.89v-6.87h-.04zm4.14 1.8c.65 0 1.08-.29 1.08-.83s-.43-.83-1.08-.83h-2.25v1.66h2.25zM10.5 8.4h1.89v6.87h-1.89V8.4zm6.87 6.87c0-.72.54-1.14 1.35-1.14.81 0 1.35.42 1.35 1.14v.72h-2.7v-.72zm2.7-.54c0-.33-.27-.54-.63-.54s-.63.21-.63.54v.03c0 .33.27.54.63.54s.63-.21.63-.54v-.03z"/>
</svg>
