<svg xmlns="http://www.w3.org/2000/svg" viewBox="0 0 24 24" fill="#00A8E1">
  <path d="M4.22 11.43c-.37-.27-.86-.4-1.42-.4H1.5a1.5 1.5 0 0 0-1.5 1.5v4.94c0 .56.13 1.05.4 1.42.27.37.7.62 1.27.72.56.1 1.1.1 1.63.02V15.5c.05-.02.09-.04.14-.05h.09c.09-.02.17-.04.24-.05.18-.03.33-.08.45-.15.12-.07.22-.16.3-.27.08-.11.14-.24.18-.4.04-.16.06-.35.06-.57v-1.27c0-.32-.05-.58-.16-.79-.1-.21-.25-.38-.43-.5a1.35 1.35 0 0 0-.62-.2c-.15-.02-.31-.03-.48-.03v-.75zm6.5 2.78c0-.3-.07-.55-.21-.74-.14-.19-.34-.33-.6-.41-.26-.08-.58-.12-.96-.12h-.72v2.34h.72c.38 0 .7-.04.96-.12.26-.08.46-.22.6-.41s.21-.44.21-.74v-.8zm8.25 1.5c0-.56-.13-1.05-.4-1.42a1.35 1.35 0 0 0-.48-.44c-.19-.11-.4-.18-.62-.23-.22-.05-.45-.07-.68-.07h-1.77v4.94c0 .56.13 1.05.4 1.42.27.37.7.62 1.27.72.56.1 1.1.1 1.63.02V15.5c.05-.02.09-.04.14-.05h.09c.09-.02.17-.04.24-.05.18-.03.33-.08.45-.15.12-.07.22-.16.3-.27.08-.11.14-.24.18-.4.04-.16.06-.35.06-.57v-1.27zM20.5 12c0-.32-.05-.58-.16-.79-.1-.21-.25-.38-.43-.5a1.35 1.35 0 0 0-.62-.2c-.15-.02-.31-.03-.48-.03v3.15c.17 0 .33-.01.48-.03.24-.03.45-.11.62-.23.17-.12.3-.28.4-.48.1-.2.15-.46.15-.79v-.1zm-8.78 0c0-.3-.07-.55-.21-.74-.14-.19-.34-.33-.6-.41-.26-.08-.58-.12-.96-.12h-.72v2.34h.72c.38 0 .7-.04.96-.12.26-.08.46-.22.6-.41s.21-.44.21-.74v-.8zM12 7.5a4.5 4.5 0 1 0 0 9 4.5 4.5 0 0 0 0-9zm0-1.5a6 6 0 1 1 0 12 6 6 0 0 1 0-12z"/>
</svg>
